# xmcd
#
# Track frame offsets:
# 150
# 18651
# 39468
# 55738
# 73068
# 88654
# 109935
# 127269
# 149442
# 169240
# 194943
# 212045
#
# Disc length: 3165 seconds
#
# Revision: 1
# Processed by: cddbd v1.5.2PL0 Copyright (c) Steve Scherf et al.
# Submitted via: CedeCatalogueitor 2.6.0.6 http://personales.ya.com/cdcatalogueitor
#
DISCID=c10c5b0c
DTITLE=Natalie Cole - Leavin´
DYEAR=2006
DGENRE=
TTITLE0=Criminal
TTITLE1=Old Man
TTITLE2=Day Dreaming
TTITLE3=Leavin´ 
TTITLE4=The More You Do It
TTITLE5=Lovin´ Arms
TTITLE6=Love Letter
TTITLE7=The Man Wiyh The Child In Hie Eyes
TTITLE8=5 Minutes Away
TTITLE9=Don´t Say Goodnight
TTITLE10=You Gotta Be
TTITLE11=If I Ever Lose My Faith In You
EXTD=
EXTT0=
EXTT1=
EXTT2=
EXTT3=
EXTT4=
EXTT5=
EXTT6=
EXTT7=
EXTT8=
EXTT9=
EXTT10=
EXTT11=
PLAYORDER=
